<svg width="32" height="32" viewBox="0 0 32 32" fill="none" xmlns="http://www.w3.org/2000/svg">
<path d="M2.10704 16.9986C1.55551 17.0275 1.08499 16.6038 1.05612 16.0523C1.02724 15.5008 1.45093 15.0302 2.00246 15.0014L2.05475 16L2.10704 16.9986ZM29.9969 5.99986L19.9453 11.6829L20.0494 0.136403L29.9969 5.99986ZM2.05475 16C2.00246 15.0014 2.00222 15.0014 2.00201 15.0014C2.00199 15.0014 2.00181 15.0014 2.00177 15.0014C2.00168 15.0014 2.00174 15.0014 2.00194 15.0014C2.00233 15.0014 2.0033 15.0013 2.00482 15.0012C2.00786 15.0011 2.01314 15.0008 2.02057 15.0003C2.03545 14.9994 2.05895 14.9979 2.09049 14.9956C2.1536 14.9911 2.2488 14.9836 2.37144 14.9721C2.61697 14.9492 2.97119 14.9102 3.39731 14.8469C4.2541 14.7195 5.37991 14.4966 6.49003 14.1165C7.61066 13.7329 8.64674 13.212 9.38275 12.5263C10.0935 11.8641 10.5164 11.0615 10.4971 10.0185L11.4969 10L12.4968 9.98155C12.5283 11.6886 11.7962 13.0112 10.7461 13.9896C9.72124 14.9445 8.39042 15.5799 7.13781 16.0087C5.87469 16.4411 4.62092 16.6869 3.69143 16.8251C3.22441 16.8945 2.83382 16.9376 2.55782 16.9634C2.41971 16.9764 2.30996 16.985 2.23332 16.9905C2.19499 16.9932 2.16491 16.9952 2.14367 16.9965C2.13305 16.9972 2.12464 16.9977 2.11851 16.998C2.11545 16.9982 2.11295 16.9983 2.11104 16.9984C2.11008 16.9985 2.10927 16.9985 2.1086 16.9985C2.10827 16.9986 2.10787 16.9986 2.10771 16.9986C2.10735 16.9986 2.10704 16.9986 2.05475 16ZM11.4969 10L10.4971 10.0185C10.458 7.8964 12.2862 6.72119 14.12 6.07266C16.0446 5.39204 18.5453 5.06727 20.937 4.92057L20.9983 5.9187L21.0595 6.91682C18.7186 7.0604 16.4427 7.37261 14.7868 7.95822C13.0402 8.57594 12.4841 9.29624 12.4968 9.98155L11.4969 10Z" fill="#FF0000"/>
<path d="M2.04924 15.0014C1.49771 14.9725 1.02719 15.3962 0.998316 15.9477C0.969439 16.4992 1.39313 16.9698 1.94466 16.9986L1.99695 16L2.04924 15.0014ZM29.9391 26.0001L19.8875 20.3171L19.9916 31.8636L29.9391 26.0001ZM1.99695 16C1.94466 16.9986 1.94442 16.9986 1.94421 16.9986C1.94419 16.9986 1.94401 16.9986 1.94397 16.9986C1.94388 16.9986 1.94394 16.9986 1.94414 16.9986C1.94453 16.9986 1.9455 16.9987 1.94702 16.9988C1.95006 16.9989 1.95534 16.9992 1.96277 16.9997C1.97765 17.0006 2.00115 17.0021 2.03269 17.0044C2.0958 17.0089 2.19099 17.0164 2.31364 17.0279C2.55916 17.0508 2.91339 17.0898 3.33951 17.1531C4.1963 17.2805 5.3221 17.5034 6.43223 17.8835C7.55286 18.2671 8.58894 18.788 9.32495 19.4737C10.0357 20.1359 10.4586 20.9385 10.4393 21.9815L11.4391 22L12.439 22.0185C12.4705 20.3114 11.7384 18.9888 10.6883 18.0104C9.66344 17.0555 8.33262 16.4201 7.08001 15.9913C5.81689 15.5589 4.56312 15.3131 3.63363 15.1749C3.16661 15.1055 2.77602 15.0624 2.50002 15.0366C2.36191 15.0236 2.25216 15.015 2.17552 15.0095C2.13719 15.0068 2.10711 15.0048 2.08587 15.0035C2.07525 15.0028 2.06684 15.0023 2.06071 15.002C2.05765 15.0018 2.05515 15.0017 2.05324 15.0016C2.05228 15.0015 2.05147 15.0015 2.0508 15.0015C2.05046 15.0014 2.05007 15.0014 2.04991 15.0014C2.04955 15.0014 2.04924 15.0014 1.99695 16ZM11.4391 22L10.4393 21.9815C10.4002 24.1036 12.2284 25.2788 14.0622 25.9273C15.9868 26.608 18.4875 26.9327 20.8792 27.0794L20.9405 26.0813L21.0017 25.0832C18.6608 24.9396 16.3849 24.6274 14.729 24.0418C12.9824 23.4241 12.4263 22.7038 12.439 22.0185L11.4391 22Z" fill="#17D155"/>
</svg>
